<?xml version="1.0" encoding="UTF-8"?>
<svg width="22px" height="22px" viewBox="0 0 22 22" version="1.1" xmlns="http://www.w3.org/2000/svg" xmlns:xlink="http://www.w3.org/1999/xlink">
    <!-- Generator: Sketch 51 (57462) - http://www.bohemiancoding.com/sketch -->
    <title>搜索 (1)</title>
    <desc>Created with Sketch.</desc>
    <defs></defs>
    <g id="Page-1" stroke="none" stroke-width="1" fill="none" fill-rule="evenodd">
        <g id="移动端二级页面-copy" transform="translate(-337.000000, -16.000000)">
            <rect fill="#FFFFFF" x="0" y="0" width="375" height="990"></rect>
            <g id="搜索-(1)" transform="translate(337.000000, 16.000000)" fill="#00A0E9" fill-rule="nonzero">
                <path d="M16.2442126,16.2445579 C14.4460889,18.0423306 12.0558079,19.032321 9.51382236,19.032321 C6.97228966,19.032321 4.58155584,18.0423589 2.78343214,16.2445579 C-0.927810713,12.5349166 -0.927810713,6.49737605 2.78343214,2.78685759 C4.58155584,0.989962081 6.97228966,0 9.51382236,0 C12.0558079,0 14.4460889,0.989962081 16.2442126,2.78685759 C19.95588,6.49737605 19.95588,12.5349166 16.2442126,16.2445579 Z M15.4044032,3.62692743 C13.8309212,2.05420525 11.7387001,1.18846949 9.51382234,1.18846949 C7.28936918,1.18846949 5.19672349,2.05420525 3.62369428,3.62692743 C0.377244781,6.874526 0.377244781,12.1577666 3.62369428,15.4040352 C5.19672349,16.9776346 7.28939748,17.8438231 9.51382234,17.8438231 C11.7387001,17.8438231 13.8309212,16.9776629 15.4044032,15.4040352 C18.6503999,12.1577667 18.6503999,6.87452602 15.4044032,3.62692743 Z M21.8252143,21.8244702 C21.7093414,21.9420749 21.5567877,22 21.405536,22 C21.2525295,22 21.1012778,21.9420749 20.9845275,21.8244702 L18.0140332,18.8545556 C17.7818629,18.6215535 17.7818629,18.2452807 18.0140332,18.0131558 C18.245326,17.7810308 18.6216722,17.7810308 18.8538425,18.0131558 L21.8252143,20.9848248 C22.0582619,21.2178553 22.0582619,21.5936753 21.8252143,21.8244702 Z" id="Shape"></path>
            </g>
        </g>
    </g>
</svg>