<?xml version="1.0" encoding="UTF-8"?>
<svg width="1440px" height="330px" viewBox="0 0 1440 330" version="1.1" xmlns="http://www.w3.org/2000/svg" xmlns:xlink="http://www.w3.org/1999/xlink">
    <!-- Generator: Sketch 51 (57462) - http://www.bohemiancoding.com/sketch -->
    <title>Group 4</title>
    <desc>Created with Sketch.</desc>
    <defs>
        <rect id="path-1" x="0" y="0" width="1442" height="142"></rect>
        <linearGradient x1="0%" y1="32.6574608%" x2="100%" y2="36.5204218%" id="linearGradient-3">
            <stop stop-color="#679DFF" offset="0%"></stop>
            <stop stop-color="#67F9FF" offset="100%"></stop>
        </linearGradient>
        <linearGradient x1="50%" y1="0%" x2="50%" y2="97.0398302%" id="linearGradient-4">
            <stop stop-color="#5FB98F" offset="0%"></stop>
            <stop stop-color="#A1FBD1" offset="100%"></stop>
        </linearGradient>
        <linearGradient x1="0%" y1="32.6574608%" x2="97.9475253%" y2="36.4411355%" id="linearGradient-5">
            <stop stop-color="#5FB98F" offset="0%"></stop>
            <stop stop-color="#9DEDC8" offset="100%"></stop>
        </linearGradient>
        <linearGradient x1="50%" y1="0%" x2="50%" y2="100%" id="linearGradient-6">
            <stop stop-color="#FFA45A" offset="0%"></stop>
            <stop stop-color="#FFC89B" offset="100%"></stop>
        </linearGradient>
        <linearGradient x1="0%" y1="32.6574608%" x2="100%" y2="36.5204218%" id="linearGradient-7">
            <stop stop-color="#FFA45A" offset="0%"></stop>
            <stop stop-color="#FFCFA8" offset="100%"></stop>
        </linearGradient>
        <linearGradient x1="50%" y1="0%" x2="50%" y2="100%" id="linearGradient-8">
            <stop stop-color="#67A5FF" offset="0%"></stop>
            <stop stop-color="#67EBFF" offset="100%"></stop>
        </linearGradient>
        <linearGradient x1="50%" y1="0%" x2="50%" y2="97.8052746%" id="linearGradient-9">
            <stop stop-color="#E8716E" offset="0%"></stop>
            <stop stop-color="#F1A19F" offset="100%"></stop>
        </linearGradient>
        <linearGradient x1="0%" y1="32.6574608%" x2="100%" y2="36.5204218%" id="linearGradient-10">
            <stop stop-color="#E8716E" offset="0%"></stop>
            <stop stop-color="#FCB3B1" offset="100%"></stop>
        </linearGradient>
    </defs>
    <g id="Page-1" stroke="none" stroke-width="1" fill="none" fill-rule="evenodd">
        <g id="首页" transform="translate(0.000000, -570.000000)">
            <g id="Group-4" transform="translate(0.000000, 571.000000)">
                <g id="Path-3-Copy-+-Path-2-Copy-Mask" transform="translate(0.000000, 187.000000)">
                    <mask id="mask-2" fill="white">
                        <use xlink:href="#path-1"></use>
                    </mask>
                    <g id="Mask" fill-rule="nonzero"></g>
                    <path d="M-19.1584421,56.046875 C153.88062,56.046875 296.107183,14 423.364995,14 C550.622808,14 720.708745,101.117187 854.794683,88.8671875 C988.88062,76.6171875 1106.63062,14 1267.75562,14 C1428.88062,14 1519.02906,66.75 1672.83375,66.75 C1775.3702,66.75 1815.73479,124.177083 1793.9275,239.03125 L-49.5256296,239.03125 C-144.640213,117.041667 -134.517817,56.046875 -19.1584421,56.046875 Z" id="Path-3-Copy" fill="url(#linearGradient-3)" fill-rule="nonzero" opacity="0.600000024" mask="url(#mask-2)"></path>
                    <path d="M-211,131.960938 C-79.234375,98.6276042 28.0651042,81.9609375 110.898438,81.9609375 C235.148438,81.9609375 255.890625,121.554688 396.289063,121.554688 C536.6875,121.554688 727.757812,71 853.164063,71 C978.570313,71 1235.40625,121.554688 1323.01563,121.554688 C1410.625,121.554688 1502.84375,71 1587.70313,71 C1644.27604,71 1662.90885,132.786458 1643.60156,256.359375 L-188.601562,339.171875 L-211,131.960938 Z" id="Path-2-Copy" fill="url(#linearGradient-3)" fill-rule="nonzero" mask="url(#mask-2)"></path>
                </g>
                <g id="Group" transform="translate(15.000000, 0.000000)">
                    <g id="Group-2-Copy" transform="translate(359.000000, 140.000000)">
                        <path d="M24,36 C33.9411255,36 42,27.9411255 42,18 C42,8.0588745 33.9411255,0 24,0 C14.0588745,0 6,8.0588745 6,18 C6,27.9411255 14.0588745,36 24,36 Z" id="Oval" stroke="url(#linearGradient-4)" stroke-dasharray="18,9" fill-rule="nonzero"></path>
                        <circle id="Oval-Copy" fill="url(#linearGradient-5)" fill-rule="nonzero" cx="24" cy="18" r="8"></circle>
                        <text id="黑客地址" font-family="PingFangSC-Regular, PingFang SC" font-size="12" font-weight="normal" fill="#5FB98F">
                            <tspan x="0" y="55">黑客地址</tspan>
                        </text>
                    </g>
                    <g id="Group-2-Copy-2" transform="translate(852.000000, 56.000000)">
                        <path d="M22,36 C31.9411255,36 40,27.9411255 40,18 C40,8.0588745 31.9411255,0 22,0 C12.0588745,0 4,8.0588745 4,18 C4,27.9411255 12.0588745,36 22,36 Z" id="Oval" stroke="url(#linearGradient-6)" stroke-dasharray="18,9" fill-rule="nonzero"></path>
                        <circle id="Oval-Copy" fill="url(#linearGradient-7)" fill-rule="nonzero" cx="22" cy="18" r="8"></circle>
                        <text id="黑客地址-copy-2" font-family="PingFangSC-Regular, PingFang SC" font-size="12" font-weight="normal" fill="#FFA45A">
                            <tspan x="0" y="55">黑客地址</tspan>
                        </text>
                    </g>
                    <g id="Group-2-Copy-3" transform="translate(657.000000, 119.000000)">
                        <path d="M24,48 C37.254834,48 48,37.254834 48,24 C48,10.745166 37.254834,0 24,0 C10.745166,0 0,10.745166 0,24 C0,37.254834 10.745166,48 24,48 Z" id="Oval" stroke="url(#linearGradient-8)" stroke-dasharray="24,12" fill-rule="nonzero"></path>
                        <circle id="Oval-Copy" fill="url(#linearGradient-3)" fill-rule="nonzero" cx="23.5" cy="23.5" r="10.5"></circle>
                        <text id="黑客地址-copy" font-family="PingFangSC-Regular, PingFang SC" font-size="12" font-weight="normal" fill="#00A0E9">
                            <tspan x="0" y="67">黑客地址</tspan>
                        </text>
                    </g>
                    <g id="Group-2-Copy-4" transform="translate(1401.000000, 115.000000)">
                        <path d="M24,48 C37.254834,48 48,37.254834 48,24 C48,10.745166 37.254834,0 24,0 C10.745166,0 0,10.745166 0,24 C0,37.254834 10.745166,48 24,48 Z" id="Oval" stroke="url(#linearGradient-9)" stroke-dasharray="24,12" fill-rule="nonzero"></path>
                        <circle id="Oval-Copy" fill="url(#linearGradient-10)" fill-rule="nonzero" cx="23.5" cy="23.5" r="10.5"></circle>
                        <text id="黑客地址-copy-3" font-family="PingFangSC-Regular, PingFang SC" font-size="12" font-weight="normal" fill="#E8716E">
                            <tspan x="3" y="67">黑客地址</tspan>
                        </text>
                    </g>
                    <circle id="Oval" stroke="url(#linearGradient-6)" fill-rule="nonzero" cx="943.5" cy="129.5" r="6.5"></circle>
                    <circle id="Oval-Copy-2" stroke="url(#linearGradient-8)" fill-rule="nonzero" cx="553.5" cy="114.5" r="6.5"></circle>
                    <circle id="Oval-Copy-34" stroke="url(#linearGradient-8)" fill-rule="nonzero" cx="586.5" cy="6.5" r="6.5"></circle>
                    <circle id="Oval-Copy-30" stroke="url(#linearGradient-8)" fill-rule="nonzero" cx="435.5" cy="156.5" r="6.5"></circle>
                    <circle id="Oval-Copy-31" stroke="url(#linearGradient-8)" fill-rule="nonzero" cx="352.5" cy="72.5" r="6.5"></circle>
                    <circle id="Oval-Copy-32" stroke="url(#linearGradient-8)" fill-rule="nonzero" cx="6.5" cy="82.5" r="6.5"></circle>
                    <circle id="Oval-Copy-7" stroke="url(#linearGradient-4)" fill-rule="nonzero" cx="215.5" cy="110.5" r="6.5"></circle>
                    <circle id="Oval-Copy-8" stroke="url(#linearGradient-8)" fill-rule="nonzero" cx="268.5" cy="180.5" r="6.5"></circle>
                    <circle id="Oval-Copy-9" stroke="url(#linearGradient-8)" fill-rule="nonzero" cx="212.5" cy="230.5" r="2.5"></circle>
                    <circle id="Oval-Copy-20" stroke="url(#linearGradient-8)" fill-rule="nonzero" cx="616.5" cy="233.5" r="2.5"></circle>
                    <circle id="Oval-Copy-21" stroke="url(#linearGradient-8)" fill-rule="nonzero" cx="732.5" cy="180.5" r="2.5"></circle>
                    <circle id="Oval-Copy-22" stroke="url(#linearGradient-8)" fill-rule="nonzero" cx="632.5" cy="78.5" r="2.5"></circle>
                    <circle id="Oval-Copy-35" stroke="url(#linearGradient-8)" fill-rule="nonzero" cx="759.5" cy="36.5" r="2.5"></circle>
                    <circle id="Oval-Copy-33" stroke="url(#linearGradient-9)" fill-rule="nonzero" cx="489.5" cy="48.5" r="2.5"></circle>
                    <circle id="Oval-Copy-23" stroke="url(#linearGradient-8)" fill-rule="nonzero" cx="830.5" cy="91.5" r="2.5"></circle>
                    <circle id="Oval-Copy-24" stroke="url(#linearGradient-8)" fill-rule="nonzero" cx="880.5" cy="140.5" r="2.5"></circle>
                    <circle id="Oval-Copy-25" stroke="url(#linearGradient-8)" fill-rule="nonzero" cx="1022.5" cy="101.5" r="2.5"></circle>
                    <circle id="Oval-Copy-26" stroke="url(#linearGradient-8)" fill-rule="nonzero" cx="1054.5" cy="228.5" r="2.5"></circle>
                    <circle id="Oval-Copy-27" stroke="url(#linearGradient-8)" fill-rule="nonzero" cx="1371.5" cy="106.5" r="2.5"></circle>
                    <circle id="Oval-Copy-28" stroke="url(#linearGradient-8)" fill-rule="nonzero" cx="1299.5" cy="173.5" r="2.5"></circle>
                    <circle id="Oval-Copy-29" stroke="url(#linearGradient-8)" fill-rule="nonzero" cx="1401.5" cy="218.5" r="2.5"></circle>
                    <circle id="Oval-Copy-3" stroke="url(#linearGradient-8)" fill-rule="nonzero" cx="35" cy="236" r="5"></circle>
                    <circle id="Oval-Copy-17" stroke="url(#linearGradient-8)" fill-rule="nonzero" cx="617.5" cy="159.5" r="6.5"></circle>
                    <circle id="Oval-Copy-16" stroke="url(#linearGradient-8)" fill-rule="nonzero" cx="801" cy="185" r="5"></circle>
                    <circle id="Oval-Copy-4" stroke="url(#linearGradient-8)" fill-rule="nonzero" cx="728" cy="84" r="5"></circle>
                    <circle id="Oval-Copy-5" stroke="url(#linearGradient-8)" fill-rule="nonzero" cx="851" cy="123" r="5"></circle>
                    <circle id="Oval-Copy-18" stroke="url(#linearGradient-8)" fill-rule="nonzero" cx="681" cy="252" r="5"></circle>
                    <circle id="Oval-Copy-19" stroke="url(#linearGradient-8)" fill-rule="nonzero" cx="524" cy="283" r="5"></circle>
                    <circle id="Oval-Copy-6" stroke="url(#linearGradient-8)" fill-rule="nonzero" cx="924" cy="212" r="8"></circle>
                    <circle id="Oval-Copy-10" stroke="url(#linearGradient-8)" fill-rule="nonzero" cx="1096" cy="155" r="8"></circle>
                    <circle id="Oval-Copy-11" stroke="url(#linearGradient-9)" fill-rule="nonzero" cx="1186" cy="161" r="8"></circle>
                    <circle id="Oval-Copy-12" stroke="url(#linearGradient-8)" fill-rule="nonzero" cx="1145.5" cy="201.5" r="4.5"></circle>
                    <circle id="Oval-Copy-15" stroke="url(#linearGradient-8)" fill-rule="nonzero" cx="1223" cy="265" r="8"></circle>
                    <circle id="Oval-Copy-14" stroke="url(#linearGradient-8)" fill-rule="nonzero" cx="1361" cy="171" r="8"></circle>
                    <circle id="Oval-Copy-13" stroke="url(#linearGradient-4)" fill-rule="nonzero" cx="1356.5" cy="43.5" r="4.5"></circle>
                </g>
            </g>
        </g>
    </g>
</svg>