<?xml version="1.0" encoding="UTF-8"?>
<svg width="10px" height="10px" viewBox="0 0 10 10" version="1.1" xmlns="http://www.w3.org/2000/svg" xmlns:xlink="http://www.w3.org/1999/xlink">
    <!-- Generator: Sketch 51 (57462) - http://www.bohemiancoding.com/sketch -->
    <title>转换</title>
    <desc>Created with Sketch.</desc>
    <defs></defs>
    <g id="Page-1" stroke="none" stroke-width="1" fill="none" fill-rule="evenodd">
        <g id="移动端首页" transform="translate(-309.000000, -295.000000)">
            <rect fill="#FFFFFF" x="0" y="0" width="375" height="746"></rect>
            <g id="Group-2" transform="translate(16.000000, 294.000000)" fill="#999999" fill-rule="nonzero">
                <g id="转换" transform="translate(293.000000, 1.000000)">
                    <path d="M0.307586887,3.75481284 L3.46039189,3.75481284 C3.65261096,3.75481284 3.76799091,3.60155123 3.76799091,3.44828961 C3.76799091,3.25669447 3.6141914,3.14177847 3.46039189,3.14177847 L1.03812848,3.14177847 C1.7686337,1.64752004 3.26813645,0.613022282 4.99833846,0.613022282 C7.18991473,0.613022282 9.03543605,2.26054233 9.34302294,4.36781095 L9.99666478,4.36781095 C9.68909002,1.91569765 7.57440137,1.20849719e-05 4.99833846,1.20849719e-05 C3.11434907,1.20849719e-05 1.49951488,1.03450985 0.615185901,2.56706555 L0.615185901,0.306511141 C0.615185901,0.153261613 0.499866589,0 0.307586887,0 C0.153799507,0 0,0.153261613 0,0.306511141 L0,3.44828961 C1.21273858e-05,3.75481284 0.307586887,3.75481284 0.307586887,3.75481284 Z M9.72750958,6.2452355 L6.57475309,6.2452355 C6.38248551,6.2452355 6.2671662,6.39849711 6.2671662,6.55175873 C6.2671662,6.74328136 6.42096571,6.85825778 6.57475309,6.85825778 L8.95854843,6.85825778 C8.2664749,8.35247996 6.72854047,9.34869253 4.99833846,9.34869253 C2.80676218,9.34869253 0.961240856,7.70117248 0.653653969,5.59389177 L0.0384923226,5.59389177 C0.34607921,8.08432652 2.46070722,10 4.99833846,10 C6.88232785,10 8.53558159,8.96555058 9.38150314,7.43294653 L9.38150314,9.69348886 C9.38150314,9.885084 9.53530264,10 9.68909002,10 C9.88132122,10 9.99667691,9.84675047 9.99667691,9.69348886 L9.99667691,6.55177081 C10.0351086,6.2452355 9.72750958,6.2452355 9.72750958,6.2452355 Z" id="Shape"></path>
                </g>
            </g>
        </g>
    </g>
</svg>