<?xml version="1.0" encoding="UTF-8"?>
<svg width="24px" height="24px" viewBox="0 0 24 24" version="1.1" xmlns="http://www.w3.org/2000/svg" xmlns:xlink="http://www.w3.org/1999/xlink">
    <!-- Generator: Sketch 51 (57462) - http://www.bohemiancoding.com/sketch -->
    <title>搜索 (1)</title>
    <desc>Created with Sketch.</desc>
    <defs></defs>
    <g id="Page-1" stroke="none" stroke-width="1" fill="none" fill-rule="evenodd">
        <g id="首页" transform="translate(-972.000000, -381.000000)" fill="#C8C8C8" fill-rule="nonzero">
            <g id="搜索-(1)" transform="translate(972.000000, 381.000000)">
                <path d="M17.7209592,17.7213359 C15.7593697,19.6825425 13.1517905,20.762532 10.3787153,20.762532 C7.60613417,20.762532 4.99806091,19.6825733 3.03647143,17.7213359 C-1.01215714,13.6744545 -1.01215714,7.0880466 3.03647143,3.04020828 C4.99806091,1.07995863 7.60613417,0 10.3787153,0 C13.1517905,0 15.7593697,1.07995863 17.7209592,3.04020828 C21.7700509,7.0880466 21.7700509,13.6744545 17.7209592,17.7213359 Z M16.8048035,3.95664811 C15.0882776,2.24095119 12.8058546,1.29651217 10.3787153,1.29651217 C7.95203911,1.29651217 5.6691529,2.24095119 3.95312103,3.95664811 C0.411539761,7.4994829 0.411539761,13.2630181 3.95312103,16.8044021 C5.6691529,18.5210559 7.95206997,19.4659889 10.3787153,19.4659889 C12.8058546,19.4659889 15.0882776,18.5210868 16.8048035,16.8044021 C20.3458908,13.2630182 20.3458908,7.49948293 16.8048035,3.95664811 Z M23.8093247,23.8085129 C23.6829179,23.936809 23.5164957,24 23.3514939,24 C23.1845777,24 23.0195758,23.936809 22.8922119,23.8085129 L19.6516726,20.5686062 C19.3983959,20.314422 19.3983959,19.9039426 19.6516726,19.6507154 C19.903992,19.3974882 20.3145515,19.3974882 20.5678282,19.6507154 L23.8093247,22.8925361 C24.0635584,23.1467512 24.0635584,23.5567366 23.8093247,23.8085129 Z" id="Shape"></path>
            </g>
        </g>
    </g>
</svg>